# xmcd CD database file
#
# Track frame offsets:
#	150
#	16165
#	32230
#	49290
#	65592
#	79972
#	101877
#	123405
#	143340
#	157977
#	182215
#	200535
#	215655
#	228812
#	245532
#	265535
#	285542
#	303555
#	316905
#
# Disc length: 4498 seconds
#
# Revision: 0
# Processed by: cddbd v1.5.1PL0 Copyright (c) Steve Scherf et al.
# Submitted via: CDex 1.50
#
DISCID=0c119013
DTITLE=Compilation - The Open Road
DYEAR=1900
DGENRE=Country
TTITLE0=Hard Road =Tough Country
TTITLE1=Simone Hardy =Lovin' Long Distance
TTITLE2=Tanya Self and Adam Harvey =Drive Away
TTITLE3=Jackie Bristow =Trying To Find My Way Back Home
TTITLE4=Andrew Clermont and Steve Berry =Once Upon Arrival
TTITLE5=Big Whiskey =Dreams In The Dust
TTITLE6=Lyn Bowtell =Burn On The Wind
TTITLE7=Natalie Carne =Daddy Wasn't There
TTITLE8=Martin Anton =Lonely Girl
TTITLE9=Libby Clarke =Prayer For Sierra Blanca
TTITLE10=Tanya Sullivan =Strange Town
TTITLE11=Nicole Brophy =Running Out Of Love
TTITLE12=Josh Arnold =When The Sun Goes Down
TTITLE13=Judy Harrison =Such A Short Time
TTITLE14=Sam Hawksley =How In Heaven's Name
TTITLE15=Love Me =Sticky
TTITLE16=Lisa Miller =The Waltz
TTITLE17=Olivia-Jane Crick =Don't Tell Me The Truth
TTITLE18=Peter Dehany =Over The Floodway
EXTD=
EXTT0=
EXTT1=
EXTT2=
EXTT3=
EXTT4=
EXTT5=
EXTT6=
EXTT7=
EXTT8=
EXTT9=
EXTT10=
EXTT11=
EXTT12=
EXTT13=
EXTT14=
EXTT15=
EXTT16=
EXTT17=
EXTT18=
PLAYORDER=
